<svg id="Layer_1" data-name="Layer 1" xmlns="http://www.w3.org/2000/svg" viewBox="0 0 596.17 269.28"><defs><style>.cls-1{fill:#e1c2cb;}</style></defs><title>logo</title><polygon class="cls-1" points="297.78 183.59 223.97 257.42 207.55 241.01 297.77 150.8 297.74 150.8 387.96 241.01 371.55 257.42 297.74 183.59 297.78 183.59"/><polygon class="cls-1" points="297.74 85.2 371.56 11.37 387.97 27.78 297.74 118 297.77 118 207.55 27.78 223.96 11.37 297.78 85.2 297.74 85.2"/><path class="cls-1" d="M1.92,408.12c56,38.5,132.12,35,182.61-10h0l98.11-98.09-86.34-86.35-15.68,15.7,70.63,70.64L176.7,374.6A127.77,127.77,0,0,1,17.88,392.06Z" transform="translate(-1.92 -165.36)"/><path class="cls-1" d="M598.08,192.21C542,153.36,465.61,156.75,415,201.85h0L316.83,300l86.34,86.34,15.7-15.71L348.22,300l74.57-74.56A127.78,127.78,0,0,1,582,208.2Z" transform="translate(-1.92 -165.36)"/></svg>